<?xml version="1.0" encoding="UTF-8"?>
<!DOCTYPE svg PUBLIC "-//W3C//DTD SVG 1.1//EN" "http://www.w3.org/Graphics/SVG/1.1/DTD/svg11.dtd">
<svg xmlns="http://www.w3.org/2000/svg" version="1.1" width="512px" height="512px" style="shape-rendering:geometricPrecision; text-rendering:geometricPrecision; image-rendering:optimizeQuality; fill-rule:evenodd; clip-rule:evenodd" xmlns:xlink="http://www.w3.org/1999/xlink">
<g><path style="opacity:0.985" fill="#020101" d="M 250.5,-0.5 C 253.833,-0.5 257.167,-0.5 260.5,-0.5C 333.189,41.5994 406.022,83.5994 479,125.5C 479.862,127.087 480.529,128.754 481,130.5C 481.667,215.5 481.667,300.5 481,385.5C 480.529,387.246 479.862,388.913 479,390.5C 406.024,430.734 333.191,471.068 260.5,511.5C 257.167,511.5 253.833,511.5 250.5,511.5C 180.056,472.441 109.389,433.608 38.5,395C 33.9014,393.402 31.0681,390.235 30,385.5C 29.3333,300.5 29.3333,215.5 30,130.5C 30.5163,127.966 31.683,125.8 33.5,124C 59.3295,109.586 84.9961,94.9196 110.5,80C 115,76.5718 120,75.2384 125.5,76C 127.584,76.6972 129.251,77.8639 130.5,79.5C 132.758,85.6461 131.425,90.8127 126.5,95C 119.337,98.7471 112.337,102.747 105.5,107C 106.167,107.167 106.833,107.333 107.5,107.5C 153.482,97.1696 199.482,87.1696 245.5,77.5C 245.667,60.4967 245.5,43.4967 245,26.5C 230.915,34.793 216.748,42.9597 202.5,51C 197.782,51.4768 193.782,49.9768 190.5,46.5C 188.307,40.6717 189.64,35.8383 194.5,32C 213.393,21.3924 232.06,10.5591 250.5,-0.5 Z"/></g>
<g><path style="opacity:0.995" fill="#fcdce2" d="M 130.5,79.5 C 137.631,76.1011 144.631,72.4344 151.5,68.5C 155.558,73.5119 160.558,74.6786 166.5,72C 170.542,67.8633 171.542,63.0299 169.5,57.5C 176.342,53.5784 183.342,49.9117 190.5,46.5C 193.782,49.9768 197.782,51.4768 202.5,51C 216.748,42.9597 230.915,34.793 245,26.5C 245.5,43.4967 245.667,60.4967 245.5,77.5C 199.482,87.1696 153.482,97.1696 107.5,107.5C 106.833,107.333 106.167,107.167 105.5,107C 112.337,102.747 119.337,98.7471 126.5,95C 131.425,90.8127 132.758,85.6461 130.5,79.5 Z"/></g>
<g><path style="opacity:1" fill="#fb7b94" d="M 265.5,27.5 C 312.599,53.2169 359.266,79.7169 405.5,107C 403.833,107.667 402.167,107.667 400.5,107C 355.527,96.9723 310.527,87.1389 265.5,77.5C 265.5,60.8333 265.5,44.1667 265.5,27.5 Z"/></g>
<g><path style="opacity:0.944" fill="#030202" d="M 169.5,57.5 C 171.542,63.0299 170.542,67.8633 166.5,72C 160.558,74.6786 155.558,73.5119 151.5,68.5C 149.159,57.0067 153.826,52.1734 165.5,54C 167.324,54.66 168.657,55.8267 169.5,57.5 Z"/></g>
<g><path style="opacity:1" fill="#fd9db0" d="M 232.5,99.5 C 233.552,99.3505 234.552,99.5172 235.5,100C 193.293,172.915 150.96,245.749 108.5,318.5C 89.5576,259.007 71.2243,199.341 53.5,139.5C 113.37,126.613 173.036,113.28 232.5,99.5 Z"/></g>
<g><path style="opacity:1" fill="#fd9db0" d="M 275.5,100.5 C 275.735,99.9033 276.235,99.5699 277,99.5C 337.088,113.209 397.255,126.542 457.5,139.5C 439.776,199.341 421.442,259.007 402.5,318.5C 360.14,245.77 317.807,173.104 275.5,100.5 Z"/></g>
<g><path style="opacity:1" fill="#fdbcc9" d="M 387.5,333.5 C 299.5,334.833 211.5,334.833 123.5,333.5C 167.073,257.258 211.073,181.258 255.5,105.5C 299.927,181.258 343.927,257.258 387.5,333.5 Z"/></g>
<g><path style="opacity:1" fill="#2f171c" d="M 51.5,201.5 C 50.501,255.997 50.1677,310.664 50.5,365.5C 49.3348,310.335 49.1682,255.002 50,199.5C 50.7172,200.044 51.2172,200.711 51.5,201.5 Z"/></g>
<g><path style="opacity:1" fill="#2f171c" d="M 460.5,365.5 C 460.832,310.664 460.499,255.997 459.5,201.5C 459.783,200.711 460.283,200.044 461,199.5C 461.832,255.002 461.665,310.335 460.5,365.5 Z"/></g>
<g><path style="opacity:1" fill="#fc7b95" d="M 51.5,201.5 C 65.1904,247.406 79.1904,293.239 93.5,339C 79.8484,348.793 65.5151,357.627 50.5,365.5C 50.1677,310.664 50.501,255.997 51.5,201.5 Z"/></g>
<g><path style="opacity:1" fill="#fc7b95" d="M 459.5,201.5 C 460.499,255.997 460.832,310.664 460.5,365.5C 445.485,357.627 431.152,348.793 417.5,339C 431.581,293.171 445.581,247.338 459.5,201.5 Z"/></g>
<g><path style="opacity:1" fill="#040303" d="M 213.5,220.5 C 237.638,220.47 248.804,232.47 247,256.5C 240.556,269.893 232.722,282.393 223.5,294C 230.167,294.333 236.833,294.667 243.5,295C 249.795,297.425 251.962,301.925 250,308.5C 248.833,311 247,312.833 244.5,314C 229.5,314.667 214.5,314.667 199.5,314C 193.768,310.392 192.268,305.559 195,299.5C 206.42,284.319 217.087,268.653 227,252.5C 228.387,245.875 225.72,241.875 219,240.5C 213.28,241.891 209.947,245.557 209,251.5C 202.958,257.119 197.291,256.785 192,250.5C 190.39,240.213 193.89,232.046 202.5,226C 206.017,223.674 209.683,221.84 213.5,220.5 Z"/></g>
<g><path style="opacity:1" fill="#040303" d="M 283.5,220.5 C 301.103,219.537 312.936,227.203 319,243.5C 319.942,260.553 319.609,277.553 318,294.5C 310.772,310.033 298.605,316.533 281.5,314C 269.392,309.559 261.892,301.059 259,288.5C 258.333,274.167 258.333,259.833 259,245.5C 262.683,232.651 270.85,224.318 283.5,220.5 Z"/></g>
<g><path style="opacity:1" fill="#fabac7" d="M 286.5,240.5 C 291.874,239.937 296.041,241.937 299,246.5C 299.667,260.5 299.667,274.5 299,288.5C 295.194,294.386 290.028,295.886 283.5,293C 281.19,291.363 279.69,289.196 279,286.5C 278.333,273.833 278.333,261.167 279,248.5C 280.353,244.65 282.853,241.983 286.5,240.5 Z"/></g>
<g><path style="opacity:1" fill="#322528" d="M 123.5,333.5 C 211.5,334.833 299.5,334.833 387.5,333.5C 388.043,333.56 388.376,333.893 388.5,334.5C 299.833,335.833 211.167,335.833 122.5,334.5C 122.624,333.893 122.957,333.56 123.5,333.5 Z"/></g>
<g><path style="opacity:1" fill="#fd7c96" d="M 129.5,355.5 C 213.332,354.334 297.332,354.168 381.5,355C 339.655,399.011 297.655,442.845 255.5,486.5C 213.479,442.813 171.479,399.146 129.5,355.5 Z"/></g>
<g><path style="opacity:1" fill="#fb5b7b" d="M 102.5,357.5 C 106.737,360.228 110.571,363.561 114,367.5C 143.385,398.429 172.885,429.263 202.5,460C 200.402,459.968 198.402,459.301 196.5,458C 151.167,433 105.833,408 60.5,383C 74.7301,374.726 88.7301,366.226 102.5,357.5 Z"/></g>
<g><path style="opacity:1" fill="#fb5b7b" d="M 406.5,357.5 C 421.312,365.405 435.645,374.071 449.5,383.5C 403.241,409.547 356.741,435.214 310,460.5C 309.333,459.833 309.333,459.167 310,458.5C 342.371,424.964 374.537,391.298 406.5,357.5 Z"/></g>
</svg>
